<svg xmlns="http://www.w3.org/2000/svg" viewBox="0 0 64 64">
  <defs>
    <linearGradient id="g" x1="0" y1="0" x2="1" y2="1">
      <stop offset="0" stop-color="#6366f1"/>
      <stop offset="1" stop-color="#0ea5e9"/>
    </linearGradient>
  </defs>
  <rect width="64" height="64" rx="14" fill="url(#g)"/>
  <path d="M21 25.5c0-6 4.4-9.5 11-9.5 4.3 0 8 1.4 10.5 4.2l-4.2 3.2c-1.4-1.7-3.3-2.6-6.1-2.6-3.5 0-5.6 1.6-5.6 4.1 0 2.4 1.8 3.6 6.6 4.6 6.4 1.3 10.2 3.8 10.2 10 0 6.2-4.9 9.8-12 9.8-5.2 0-9.7-1.7-12.5-5l4.3-3.3c1.7 2 4.2 3.1 8 3.1 3.8 0 6.1-1.5 6.1-4.2 0-2.6-1.7-3.6-7.1-4.8-6-1.3-9.2-3.9-9.2-9.6Z" fill="#fff" opacity="0.95"/>
  <path d="M20 44.5h22.5v4H20z" fill="#0b1220" opacity="0.25"/>
</svg>

